# xmcd
#
# Track frame offsets: 
#        150
#        13115
#        24322
#        38305
#        52555
#        63585
#        77260
#        90000
#        102752
#        116972
#        129407
#        142775
#        156012
#        169227
#        181297
#        193670
#        205125
#        218470
#        232025
#        247142
#        255482
#        269245
#        281912
#        295262
#
# Disc length: 4115 seconds
#
# Revision: 2
# Processed by: cddbd v1.5.2PL0 Copyright (c) Steve Scherf et al.
# Submitted via: ExactAudioCopyFreeDBPlugin 1.0
#
DISCID=45101118
DTITLE=Louis Jordan - Let the Good Times Roll:  The Complete US Decca 
DTITLE=Recordings, 1938-1954 [Bear Family box set]
DYEAR=1992
DGENRE=Rhythm and Blues
TTITLE0=What's the Use of Gettin' Sober
TTITLE1=The Chicks I Pick Are Slender, Tender, and Tall
TTITLE2=I'm Gonna Leave You on the Outskirts of Town
TTITLE3=That'll Just 'Bout Knock Me Out
TTITLE4=Dirty Snake
TTITLE5=Five Guys Named Moe
TTITLE6=It's a Low-Down Dirty Shame
TTITLE7=De Laff's on You
TTITLE8=Ration Blues
TTITLE9=Is You Is or Is You Ain't My Baby
TTITLE10=Deacon Jones
TTITLE11=The Things I Want I Can't Get at Home
TTITLE12=How High Am I
TTITLE13=I Like 'Em Fat Like That
TTITLE14=The Truth of the Matter
TTITLE15=Hey! Now Let's Live
TTITLE16=Mop-Mop
TTITLE17=G. I. Jive
TTITLE18=You Can't Get That No More
TTITLE19=Louis' Oldsmobile Song
TTITLE20=Your Socks Don't Match (with Bing Crosby) (unissued take)
TTITLE21=My Baby Said Yes (Yip, Yip De Hootie) (with Bing Crosby)
TTITLE22=My Baby Said Yes (Yip, Yip De Hootie (with Bing Crosby) (unis
TTITLE22=sued take)
TTITLE23=Your Socks Don't Match (with Bing Crosby)
EXTD=YEAR: 1992
EXTT0=
EXTT1=
EXTT2=
EXTT3=
EXTT4=
EXTT5=
EXTT6=
EXTT7=
EXTT8=
EXTT9=
EXTT10=
EXTT11=
EXTT12=
EXTT13=
EXTT14=
EXTT15=
EXTT16=
EXTT17=
EXTT18=
EXTT19=
EXTT20=
EXTT21=
EXTT22=
EXTT23=
PLAYORDER=
